# xmcd CD database file
#
# Track frame offsets:
#	150
#	10311
#	29973
#	46324
#	63658
#	82633
#	103638
#	117732
#	129789
#	148106
#	168869
#	182566
#	196995
#	210609
#	231057
#	247148
#
# Disc length: 3558 seconds
#
# Revision: 0
# Processed by: cddbd v1.5.2PL0 Copyright (c) Steve Scherf et al.
# Submitted via: CDex 1.51
#
DISCID=e00de410
DTITLE=Herbert Christ and Fraser Gartshore - Trumpet meets Organ - Herbert Christ Trumpet and Fraser Gartshore Organ
DYEAR=2005
DGENRE=Jazz
TTITLE0=Bye And Bye
TTITLE1=She's Funny That Way
TTITLE2=A Porter's Love Song
TTITLE3=Go Down Moses
TTITLE4=Wolverine Blues
TTITLE5=Organ Donor Blues
TTITLE6=Is It True What They Say About Dixie
TTITLE7=Jumping At the Organ
TTITLE8=The Old Rugged Cross
TTITLE9=My Blue Heaven
TTITLE10=Wrap Your Troubles in Dreams
TTITLE11=Jubilee
TTITLE12=Lead Me Saviour
TTITLE13=She's Funny That Way
TTITLE14=A Porter's Love Song
TTITLE15=Organ Donor Blues
EXTD=YEAR: 2005
EXTT0=
EXTT1=
EXTT2=
EXTT3=
EXTT4=
EXTT5=
EXTT6=
EXTT7=
EXTT8=
EXTT9=
EXTT10=
EXTT11=
EXTT12=
EXTT13=
EXTT14=
EXTT15=
PLAYORDER=
